<svg xmlns="http://www.w3.org/2000/svg" width="187.947" height="320.179" viewBox="0 0 187.947 320.179"><defs><style>.a{fill:#fff;}.b{fill:#957f6e;}.c{fill:#b3b3b3;}.d{fill:#fce0cd;}.e{fill:#efc0a0;}.f{fill:#645d5c;}.g{fill:#939393;}</style></defs><path class="a" d="M93.007,242.919c-6.154-15.187-7.738-20.2-12.549-34.975-4.822-14.808-9.275-28.6-13.141-43.11a55.965,55.965,0,0,0,26.662,5.748,56.024,56.024,0,0,0,26.306-5.571c-3.769,14.442-8.075,28.6-12.743,42.933-4.811,14.774-6.395,19.788-12.55,34.975Z"/><path class="b" d="M32.406,78.629c-.971-29.256,6.725-50.473,18.858-62.088C58.577,9.539,75.058,0,93.575,0a67.229,67.229,0,0,1,26.878,5.148l1.387.786,7.583,4.295a57.379,57.379,0,0,1,7.845,6.576c9.259,8.932,15.693,25,16.718,39.394.3,4.152.975,14.953.321,22.43.329,24.705,4.883,38.533,7.234,45.339a45.2,45.2,0,0,1,2.855,15.477c.084,9.247-11.409,21.221-24.621,16.482l-94.29,2.263c-12.1.291-19.974-8.614-19.907-16.823a96.026,96.026,0,0,1,2.927-20.479c2.277-8.131,3.9-22.431,3.9-42.259"/><path class="c" d="M182.778,191.021a45.807,45.807,0,0,0-22.663-26.045,179.5,179.5,0,0,0-22.55-9.39c-1.482-1.411-3.087-2.8-4.7-4.1l-5.982-2.547a2.217,2.217,0,0,0-3.027,1.548c-4.518,19.572-10.094,38.354-16.314,57.455-4.811,14.774-6.395,19.788-12.55,34.975H93.007c-6.154-15.187-7.738-20.2-12.549-34.975-6.287-19.306-11.946-36.879-16.491-56.59a1.9,1.9,0,0,0-2.364-1.41l-6.992,1.969c-1.259,1.032-2.5,2.111-3.684,3.21C35.638,160.592,28.686,163,19.092,170.2a35.392,35.392,0,0,0-7.679,8.108A59.415,59.415,0,0,0,4.3,197.614a287.5,287.5,0,0,0-3.1,75.819c1.026,11.578,3.72,22.414,7.546,28.549a33.286,33.286,0,0,0,13.957,12.433c10.771,4.828,30.163,2.362,41.934-.873,3.951-1.086,8.544-2.411,13.281-3.826,12.452,3.712,26.128,6.991,36.819,8.449,14.032,1.913,24.637,2.691,39.6,1.321,12.518-1.612,20.828-6.452,24.715-13.664,4.768-8.841,6.743-17.067,7.5-28.662.969-14.512,1.564-29.068,1.344-43.625-.22-14.1-.65-29.046-5.153-42.534"/><path class="d" d="M46.952,72.757h2.9a.968.968,0,0,0,.414-.09c3.21-1.491,11.437-5.054,12.659-5.777a109.352,109.352,0,0,0,11.843-8h0c12.97-2.928,31.3-12.07,37.709-19.684h1.377c1.876,6.03,3.449,11.756,9.988,20.574A69.534,69.534,0,0,0,137.23,73.061l2.125,1.448a.994.994,0,0,0,1.16,0,7.285,7.285,0,0,1,4.69-1.454,6.651,6.651,0,0,1,5.964,3.384c2.028,3.568,1.909,10.119.532,14.175-.976,2.863-2.581,7.255-6.41,10.389a7.879,7.879,0,0,1-6.106,1.757l-.694-.162A55.187,55.187,0,0,1,128.3,122.049c-4.355,5.284-8.489,8.547-13.5,10.886.074,2.724-.031,3.4.192,6.444a13.055,13.055,0,0,0,.659,3.831,9.331,9.331,0,0,0,2.806,4.1,22.32,22.32,0,0,0,5.4,3.165q-1.693,7.335-3.579,14.538a56.026,56.026,0,0,1-26.3,5.568,56.062,56.062,0,0,1-26.656-5.736c-1.2-4.514-2.347-9.1-3.429-13.808a24.592,24.592,0,0,0,6.748-3.727,9.423,9.423,0,0,0,2.806-4.1,13.819,13.819,0,0,0,.659-3.831c.162-2.216.151-3.176.161-4.583l.291-.72c-5.532-2.342-10.412-6.4-15.032-12.027a55.094,55.094,0,0,1-10.292-19.793l-.488.141a7.854,7.854,0,0,1-6.095-1.8c-3.807-3.167-5.379-7.57-6.334-10.444-1.345-4.067-1.41-10.617.64-14.175a6.668,6.668,0,0,1,6-3.329,8.021,8.021,0,0,1,1.508.108Z"/><path class="d" d="M153.9,254.933c-.771,7.779-2.269,21.2-4.616,34.1l-.937-.176c-8.252.959-34.749,3.371-38.792,1.322l-1.179.242c-1.862-9.309-5.332-22.023-7.128-29.669a5.847,5.847,0,0,0-.485-1.289l1.179-.32c6.511-2.886,10.268-3.911,17.066-5.872,6.082-1.763,12.582-3.592,20.966-3.6a35.668,35.668,0,0,1,11.117,2.259l3.074.264Q154.049,253.5,153.9,254.933Z"/><path class="d" d="M43.716,232.733c7.327,6.622,20.823,20.03,27.643,27.037l.209,1.135c-12.857,2.391-26.585,5.013-36.7,6.82l-.441-2.468c-1.333-1.752-2.633-3.526-4.164-5.52a10.745,10.745,0,0,1-1.895-3.107,4.517,4.517,0,0,1,.639-3.889c1.19-1.366,2.677-1.443,4.594-1.168l.672-.639c-.793-.837-1.6-1.664-2.4-2.49a14.826,14.826,0,0,1-3.228-4.33,3.9,3.9,0,0,1,.573-4.054,4.782,4.782,0,0,1,4.3-1.443l1.08-.011a8.04,8.04,0,0,1-1.091-1.7,4.745,4.745,0,0,1,.694-5.2,5.459,5.459,0,0,1,4.473-1.377A9.485,9.485,0,0,1,43.716,232.733Z"/><path class="e" d="M87.875,114.426c.336-.177.675-.347,1.02-.509.084-.039.443-.207.074-.035-.389.182.047-.014.107-.035.249-.089.5-.178.751-.256a16.175,16.175,0,0,1,2.089-.47c-.362.06-.007,0,.166-.018.206-.021.411-.04.617-.056q.747-.054,1.5-.057c.465,0,.93.007,1.395.035.214.012.428.027.642.047.022,0,.8.1.311.028a13.478,13.478,0,0,1,2.064.464c.129.04.745.353.853.305-.064.028-.476-.234-.171-.066.116.064.242.116.36.178.174.092.345.189.512.294.2.124.789.577.056.006a2.466,2.466,0,0,0,3.394,0c.79-.861,1.058-2.57,0-3.394a14.707,14.707,0,0,0-9.127-2.7,18.754,18.754,0,0,0-9.033,2.092,2.419,2.419,0,0,0-.861,3.283,2.454,2.454,0,0,0,3.284.861Z"/><path class="e" d="M93.237,91.648a42.319,42.319,0,0,1,.994,4.548l-.086-.638a2.694,2.694,0,0,1,.017.628l.086-.638a1.508,1.508,0,0,1-.069.282l.242-.573a1.075,1.075,0,0,1-.1.182l.376-.486a.979.979,0,0,1-.149.146l.486-.375a2.953,2.953,0,0,1-.36.191l.573-.242a2.625,2.625,0,0,1-.607.177l.638-.086a2.415,2.415,0,0,1-.57,0l.638.086c-.215-.03-.426-.082-.641-.111a1.823,1.823,0,0,0-.957-.043,1.774,1.774,0,0,0-.892.285A2.4,2.4,0,0,0,92,98.263a2.29,2.29,0,0,0,1.434,1.1c.5.067.976.193,1.479.215a4.728,4.728,0,0,0,2.188-.522A3.165,3.165,0,0,0,98.85,96.97a5.222,5.222,0,0,0-.021-2.243c-.248-1.466-.587-2.918-.964-4.355a2.4,2.4,0,0,0-4.628,1.276Z"/><path class="f" d="M69.253,78.749c-.76,2.469-.265,8.147,4.412,8.63,6.18-.037,6.509-6.9,4.428-10.13C76.39,74.606,71.381,73.507,69.253,78.749Z"/><path class="f" d="M118.746,78.749c.76,2.469.265,8.147-4.411,8.63-6.181-.037-6.51-6.9-4.429-10.13C111.609,74.606,116.618,73.507,118.746,78.749Z"/><path class="e" d="M68.338,67.933a11.4,11.4,0,0,1-1.829,1.786L67,69.344A11.492,11.492,0,0,1,64.5,70.8l.574-.242c-.255.106-.512.2-.773.292a2.548,2.548,0,0,0-1.434,1.1,2.447,2.447,0,0,0-.242,1.85,2.421,2.421,0,0,0,1.1,1.434,2.4,2.4,0,0,0,1.849.242,13.539,13.539,0,0,0,6.151-4.153,2.586,2.586,0,0,0,.7-1.7,2.439,2.439,0,0,0-.7-1.7,2.412,2.412,0,0,0-1.7-.7,2.341,2.341,0,0,0-1.7.7Z"/><path class="e" d="M35.2,242.7c4.762,4.573,9.34,9.343,14.039,13.982a2.4,2.4,0,0,0,3.394-3.394c-4.7-4.639-9.277-9.409-14.039-13.983a2.4,2.4,0,1,0-3.394,3.4Z"/><path class="e" d="M32.735,252.785c2.821,2.952,5.622,5.929,8.641,8.683a2.4,2.4,0,0,0,3.394-3.394c-3.019-2.754-5.82-5.731-8.641-8.683a2.422,2.422,0,0,0-3.394,0,2.447,2.447,0,0,0,0,3.394Z"/><path class="g" d="M150.927,293.287c3.456-17.731,5.261-35.722,6.652-53.715q.587-7.587,1.45-15.146a2.414,2.414,0,0,0-2.4-2.4,2.457,2.457,0,0,0-2.4,2.4c-.955,8.338-1.508,16.7-2.223,25.059s-1.658,16.736-2.823,25.059c-.819,5.845-1.755,11.674-2.885,17.467a2.463,2.463,0,0,0,1.676,2.952,2.423,2.423,0,0,0,2.953-1.676Z"/><path class="g" d="M88.945,255.306c-15.066,2.655-30.085,5.578-45.128,8.359q-5.6,1.036-11.209,2.032a2.421,2.421,0,0,0-1.676,2.953,2.454,2.454,0,0,0,2.952,1.676c14.758-2.6,29.465-5.477,44.2-8.2q6.065-1.119,12.136-2.2a2.42,2.42,0,0,0,1.677-2.952,2.456,2.456,0,0,0-2.953-1.677Z"/><path class="g" d="M79.88,242.362c-11.08-19.2-22.031-38.5-32.245-58.182-.689-1.33-1.483-2.655-2.076-4.03a.676.676,0,0,1-.08-.235c0,.293.092.011.351-.288.524-.6,1.1-1.17,1.657-1.743,2.236-2.3,4.565-4.514,6.906-6.71a2.421,2.421,0,0,0-.486-3.769L49.7,165,47.8,163.921l-1.053-.6-.421-.24q-.691-.461-.262-.091L46.4,164.2a9.16,9.16,0,0,1,1.551-2.375,30.56,30.56,0,0,1,2.3-2.657,67.319,67.319,0,0,1,6.065-5.559,2.418,2.418,0,0,0,0-3.394,2.455,2.455,0,0,0-3.395,0c-3.755,3.094-7.595,6.517-10.147,10.715A6.126,6.126,0,0,0,41.6,164.2c.053,1.588,1.285,2.437,2.523,3.144l7.367,4.2L51,167.78c-2.224,2.086-4.437,4.185-6.57,6.365-1.976,2.018-4.531,4.192-3.486,7.332a26.968,26.968,0,0,0,1.815,3.71q1,1.929,2,3.851,2.042,3.9,4.12,7.786c5.581,10.43,11.336,20.766,17.174,31.054q4.808,8.474,9.681,16.907c1.543,2.675,5.693.26,4.145-2.423Z"/><path class="g" d="M112.264,244.785c11.684-20.253,23.236-40.6,33.91-61.41.727-1.418,1.405-2.825,1.015-4.459-.383-1.6-1.684-2.763-2.78-3.906-2.389-2.491-4.892-4.869-7.409-7.23l-.485,3.769,7.366-4.2c1.233-.7,2.471-1.577,2.523-3.144a6.572,6.572,0,0,0-1.346-3.551c-2.7-4.251-6.62-7.715-10.5-10.859a2.471,2.471,0,0,0-3.394,0,2.418,2.418,0,0,0,0,3.394,69.867,69.867,0,0,1,6.369,5.755,32.249,32.249,0,0,1,2.453,2.8c.424.556,1.591,1.919,1.614,2.464l.328-1.212c.2-.38-.236.076-.473.211l-1.053.6-2.1,1.2-4.21,2.4a2.422,2.422,0,0,0-.486,3.769c2.107,1.976,4.2,3.964,6.232,6.021q.677.685,1.343,1.383a7.555,7.555,0,0,1,1.338,1.453c.09.187.007-.26-.012-.063a2.38,2.38,0,0,1-.272.583c-.3.607-.62,1.207-.931,1.81q-3.761,7.294-7.659,14.517c-5.313,9.867-10.775,19.653-16.309,29.4q-4.578,8.061-9.216,16.087c-1.547,2.681,2.6,5.1,4.144,2.423Z"/></svg>